<?xml version="1.0" encoding="UTF-8" standalone="no"?>
<!DOCTYPE svg PUBLIC "-//W3C//DTD SVG 1.1//EN"
 "http://www.w3.org/Graphics/SVG/1.1/DTD/svg11.dtd">
<!-- Generated by graphviz version 2.30.1 (20131029.0340)
 -->
<!-- Title: controllers_diagram Pages: 1 -->
<svg width="574pt" height="550pt"
 viewBox="0.00 0.00 574.42 550.11" xmlns="http://www.w3.org/2000/svg" xmlns:xlink="http://www.w3.org/1999/xlink">
<g id="graph0" class="graph" transform="scale(1 1) rotate(0) translate(4 546.106)">
<title>controllers_diagram</title>
<polygon fill="white" stroke="white" points="-4,5 -4,-546.106 571.423,-546.106 571.423,5 -4,5"/>
<!-- _diagram_info -->
<g id="node1" class="node"><title>_diagram_info</title>
<text text-anchor="start" x="368" y="-229" font-family="Times,serif" font-size="13.00">Controllers diagram</text>
<text text-anchor="start" x="368" y="-213.4" font-family="Times,serif" font-size="13.00">Date: Nov 01 2013 &#45; 13:19</text>
<text text-anchor="start" x="368" y="-197.8" font-family="Times,serif" font-size="13.00">Migration version: 20131101150949</text>
<text text-anchor="start" x="368" y="-182.2" font-family="Times,serif" font-size="13.00">Generated by RailRoady 1.1.1</text>
<text text-anchor="start" x="368" y="-166.6" font-family="Times,serif" font-size="13.00">http://railroady.prestonlee.com</text>
</g>
<!-- ApplicationController -->
<g id="node2" class="node"><title>ApplicationController</title>
<path fill="none" stroke="black" d="M12,-300.815C12,-300.815 190.635,-300.815 190.635,-300.815 196.635,-300.815 202.635,-306.815 202.635,-312.815 202.635,-312.815 202.635,-454.415 202.635,-454.415 202.635,-460.415 196.635,-466.415 190.635,-466.415 190.635,-466.415 12,-466.415 12,-466.415 6,-466.415 0,-460.415 0,-454.415 0,-454.415 0,-312.815 0,-312.815 0,-306.815 6,-300.815 12,-300.815"/>
<text text-anchor="middle" x="101.317" y="-448.415" font-family="Times,serif" font-size="14.00">ApplicationController</text>
<polyline fill="none" stroke="black" points="0,-441.615 202.635,-441.615 "/>
<text text-anchor="start" x="8" y="-423.615" font-family="Times,serif" font-size="14.00">_one_time_conditions_valid_40?</text>
<text text-anchor="start" x="8" y="-406.815" font-family="Times,serif" font-size="14.00">_one_time_conditions_valid_42?</text>
<text text-anchor="start" x="8" y="-390.015" font-family="Times,serif" font-size="14.00">_one_time_conditions_valid_44?</text>
<polyline fill="none" stroke="black" points="0,-383.215 202.635,-383.215 "/>
<polyline fill="none" stroke="black" points="0,-359.215 202.635,-359.215 "/>
<text text-anchor="start" x="8" y="-341.215" font-family="Times,serif" font-size="14.00">_layout</text>
<text text-anchor="start" x="8" y="-324.415" font-family="Times,serif" font-size="14.00">default_url_options</text>
<text text-anchor="start" x="8" y="-307.615" font-family="Times,serif" font-size="14.00">set_locale</text>
</g>
<!-- PeopleController -->
<g id="node3" class="node"><title>PeopleController</title>
<path fill="none" stroke="black" d="M242.813,-308.806C242.813,-308.806 421.448,-308.806 421.448,-308.806 427.448,-308.806 433.448,-314.806 433.448,-320.806 433.448,-320.806 433.448,-529.606 433.448,-529.606 433.448,-535.606 427.448,-541.606 421.448,-541.606 421.448,-541.606 242.813,-541.606 242.813,-541.606 236.813,-541.606 230.813,-535.606 230.813,-529.606 230.813,-529.606 230.813,-320.806 230.813,-320.806 230.813,-314.806 236.813,-308.806 242.813,-308.806"/>
<text text-anchor="middle" x="332.13" y="-523.606" font-family="Times,serif" font-size="14.00">PeopleController</text>
<polyline fill="none" stroke="black" points="230.813,-516.806 433.448,-516.806 "/>
<text text-anchor="start" x="238.813" y="-498.806" font-family="Times,serif" font-size="14.00">_callback_before_67</text>
<text text-anchor="start" x="238.813" y="-482.006" font-family="Times,serif" font-size="14.00">_one_time_conditions_valid_68?</text>
<text text-anchor="start" x="238.813" y="-465.206" font-family="Times,serif" font-size="14.00">create</text>
<text text-anchor="start" x="238.813" y="-448.406" font-family="Times,serif" font-size="14.00">destroy</text>
<text text-anchor="start" x="238.813" y="-431.606" font-family="Times,serif" font-size="14.00">edit</text>
<text text-anchor="start" x="238.813" y="-414.806" font-family="Times,serif" font-size="14.00">index</text>
<text text-anchor="start" x="238.813" y="-398.006" font-family="Times,serif" font-size="14.00">new</text>
<text text-anchor="start" x="238.813" y="-381.206" font-family="Times,serif" font-size="14.00">show</text>
<text text-anchor="start" x="238.813" y="-364.406" font-family="Times,serif" font-size="14.00">update</text>
<polyline fill="none" stroke="black" points="230.813,-357.606 433.448,-357.606 "/>
<polyline fill="none" stroke="black" points="230.813,-333.606 433.448,-333.606 "/>
<text text-anchor="start" x="238.813" y="-315.606" font-family="Times,serif" font-size="14.00">_layout</text>
</g>
<!-- ApplicationController&#45;&gt;PeopleController -->
<g id="edge1" class="edge"><title>ApplicationController&#45;&gt;PeopleController</title>
<path fill="none" stroke="black" d="M202.891,-401.918C212.083,-403.575 221.394,-405.252 230.585,-406.909"/>
</g>
<!-- RailsController -->
<g id="node4" class="node"><title>RailsController</title>
<path fill="none" stroke="black" d="M200.893,-0.5C200.893,-0.5 279.217,-0.5 279.217,-0.5 285.217,-0.5 291.217,-6.5 291.217,-12.5 291.217,-12.5 291.217,-187.7 291.217,-187.7 291.217,-193.7 285.217,-199.7 279.217,-199.7 279.217,-199.7 200.893,-199.7 200.893,-199.7 194.893,-199.7 188.893,-193.7 188.893,-187.7 188.893,-187.7 188.893,-12.5 188.893,-12.5 188.893,-6.5 194.893,-0.5 200.893,-0.5"/>
<text text-anchor="middle" x="240.055" y="-181.7" font-family="Times,serif" font-size="14.00">RailsController</text>
<polyline fill="none" stroke="black" points="188.893,-174.9 291.217,-174.9 "/>
<text text-anchor="start" x="196.893" y="-156.9" font-family="Times,serif" font-size="14.00">create</text>
<text text-anchor="start" x="196.893" y="-140.1" font-family="Times,serif" font-size="14.00">destroy</text>
<text text-anchor="start" x="196.893" y="-123.3" font-family="Times,serif" font-size="14.00">edit</text>
<text text-anchor="start" x="196.893" y="-106.5" font-family="Times,serif" font-size="14.00">index</text>
<text text-anchor="start" x="196.893" y="-89.7" font-family="Times,serif" font-size="14.00">new</text>
<text text-anchor="start" x="196.893" y="-72.9" font-family="Times,serif" font-size="14.00">show</text>
<text text-anchor="start" x="196.893" y="-56.1" font-family="Times,serif" font-size="14.00">update</text>
<polyline fill="none" stroke="black" points="188.893,-49.3 291.217,-49.3 "/>
<polyline fill="none" stroke="black" points="188.893,-25.3 291.217,-25.3 "/>
<text text-anchor="start" x="196.893" y="-7.3" font-family="Times,serif" font-size="14.00">_layout</text>
</g>
<!-- ApplicationController&#45;&gt;RailsController -->
<g id="edge2" class="edge"><title>ApplicationController&#45;&gt;RailsController</title>
<path fill="none" stroke="black" d="M142.006,-300.467C157.437,-268.932 175.167,-232.701 191.27,-199.794"/>
</g>
</g>
</svg>
