<?xml version="1.0" encoding="UTF-8" standalone="no"?>
<!DOCTYPE svg PUBLIC "-//W3C//DTD SVG 1.1//EN"
 "http://www.w3.org/Graphics/SVG/1.1/DTD/svg11.dtd">
<!-- Generated by graphviz version 2.30.1 (20131029.0340)
 -->
<!-- Title: models_diagram Pages: 1 -->
<svg width="610pt" height="382pt"
 viewBox="0.00 0.00 610.00 382.00" xmlns="http://www.w3.org/2000/svg" xmlns:xlink="http://www.w3.org/1999/xlink">
<g id="graph0" class="graph" transform="scale(1 1) rotate(0) translate(4 378)">
<title>models_diagram</title>
<polygon fill="white" stroke="white" points="-4,5 -4,-378 607,-378 607,5 -4,5"/>
<!-- _diagram_info -->
<g id="node1" class="node"><title>_diagram_info</title>
<text text-anchor="start" x="7.78833" y="-357" font-family="Times,serif" font-size="13.00">Models diagram</text>
<text text-anchor="start" x="7.78833" y="-341.4" font-family="Times,serif" font-size="13.00">Date: Nov 01 2013 &#45; 13:19</text>
<text text-anchor="start" x="7.78833" y="-325.8" font-family="Times,serif" font-size="13.00">Migration version: 20131101150949</text>
<text text-anchor="start" x="7.78833" y="-310.2" font-family="Times,serif" font-size="13.00">Generated by RailRoady 1.1.1</text>
<text text-anchor="start" x="7.78833" y="-294.6" font-family="Times,serif" font-size="13.00">http://railroady.prestonlee.com</text>
</g>
<!-- Person -->
<g id="node2" class="node"><title>Person</title>
<path fill="none" stroke="black" d="M107.495,-42.4C107.495,-42.4 216.505,-42.4 216.505,-42.4 222.505,-42.4 228.505,-48.4 228.505,-54.4 228.505,-54.4 228.505,-197.6 228.505,-197.6 228.505,-203.6 222.505,-209.6 216.505,-209.6 216.505,-209.6 107.495,-209.6 107.495,-209.6 101.495,-209.6 95.4946,-203.6 95.4946,-197.6 95.4946,-197.6 95.4946,-54.4 95.4946,-54.4 95.4946,-48.4 101.495,-42.4 107.495,-42.4"/>
<text text-anchor="middle" x="162" y="-191.6" font-family="Times,serif" font-size="14.00">Person</text>
<polyline fill="none" stroke="black" points="95.4946,-184.8 228.505,-184.8 "/>
<text text-anchor="start" x="103.495" y="-166.8" font-family="Times,serif" font-size="14.00">id :integer</text>
<text text-anchor="start" x="103.495" y="-150" font-family="Times,serif" font-size="14.00">name :string</text>
<text text-anchor="start" x="103.495" y="-133.2" font-family="Times,serif" font-size="14.00">surname :string</text>
<text text-anchor="start" x="103.495" y="-116.4" font-family="Times,serif" font-size="14.00">email :string</text>
<text text-anchor="start" x="103.495" y="-99.6" font-family="Times,serif" font-size="14.00">phone :string</text>
<text text-anchor="start" x="103.495" y="-82.8" font-family="Times,serif" font-size="14.00">created_at :datetime</text>
<text text-anchor="start" x="103.495" y="-66" font-family="Times,serif" font-size="14.00">updated_at :datetime</text>
<text text-anchor="start" x="103.495" y="-49.2" font-family="Times,serif" font-size="14.00">avatar :string</text>
</g>
<!-- Rail -->
<g id="node3" class="node"><title>Rail</title>
<path fill="none" stroke="black" d="M258.495,-59.2C258.495,-59.2 367.505,-59.2 367.505,-59.2 373.505,-59.2 379.505,-65.2 379.505,-71.2 379.505,-71.2 379.505,-180.8 379.505,-180.8 379.505,-186.8 373.505,-192.8 367.505,-192.8 367.505,-192.8 258.495,-192.8 258.495,-192.8 252.495,-192.8 246.495,-186.8 246.495,-180.8 246.495,-180.8 246.495,-71.2 246.495,-71.2 246.495,-65.2 252.495,-59.2 258.495,-59.2"/>
<text text-anchor="middle" x="313" y="-174.8" font-family="Times,serif" font-size="14.00">Rail</text>
<polyline fill="none" stroke="black" points="246.495,-168 379.505,-168 "/>
<text text-anchor="start" x="254.495" y="-150" font-family="Times,serif" font-size="14.00">id :integer</text>
<text text-anchor="start" x="254.495" y="-133.2" font-family="Times,serif" font-size="14.00">title :string</text>
<text text-anchor="start" x="254.495" y="-116.4" font-family="Times,serif" font-size="14.00">body :string</text>
<text text-anchor="start" x="254.495" y="-99.6" font-family="Times,serif" font-size="14.00">date :datetime</text>
<text text-anchor="start" x="254.495" y="-82.8" font-family="Times,serif" font-size="14.00">created_at :datetime</text>
<text text-anchor="start" x="254.495" y="-66" font-family="Times,serif" font-size="14.00">updated_at :datetime</text>
</g>
<!-- User -->
<g id="node4" class="node"><title>User</title>
<path fill="none" stroke="black" d="M409.722,-0.4C409.722,-0.4 590.278,-0.4 590.278,-0.4 596.278,-0.4 602.278,-6.4 602.278,-12.4 602.278,-12.4 602.278,-239.6 602.278,-239.6 602.278,-245.6 596.278,-251.6 590.278,-251.6 590.278,-251.6 409.722,-251.6 409.722,-251.6 403.722,-251.6 397.722,-245.6 397.722,-239.6 397.722,-239.6 397.722,-12.4 397.722,-12.4 397.722,-6.4 403.722,-0.4 409.722,-0.4"/>
<text text-anchor="middle" x="500" y="-233.6" font-family="Times,serif" font-size="14.00">User</text>
<polyline fill="none" stroke="black" points="397.722,-226.8 602.278,-226.8 "/>
<text text-anchor="start" x="405.722" y="-208.8" font-family="Times,serif" font-size="14.00">id :integer</text>
<text text-anchor="start" x="405.722" y="-192" font-family="Times,serif" font-size="14.00">email :string</text>
<text text-anchor="start" x="405.722" y="-175.2" font-family="Times,serif" font-size="14.00">encrypted_password :string</text>
<text text-anchor="start" x="405.722" y="-158.4" font-family="Times,serif" font-size="14.00">reset_password_token :string</text>
<text text-anchor="start" x="405.722" y="-141.6" font-family="Times,serif" font-size="14.00">reset_password_sent_at :datetime</text>
<text text-anchor="start" x="405.722" y="-124.8" font-family="Times,serif" font-size="14.00">remember_created_at :datetime</text>
<text text-anchor="start" x="405.722" y="-108" font-family="Times,serif" font-size="14.00">sign_in_count :integer</text>
<text text-anchor="start" x="405.722" y="-91.2" font-family="Times,serif" font-size="14.00">current_sign_in_at :datetime</text>
<text text-anchor="start" x="405.722" y="-74.4" font-family="Times,serif" font-size="14.00">last_sign_in_at :datetime</text>
<text text-anchor="start" x="405.722" y="-57.6" font-family="Times,serif" font-size="14.00">current_sign_in_ip :string</text>
<text text-anchor="start" x="405.722" y="-40.8" font-family="Times,serif" font-size="14.00">last_sign_in_ip :string</text>
<text text-anchor="start" x="405.722" y="-24" font-family="Times,serif" font-size="14.00">created_at :datetime</text>
<text text-anchor="start" x="405.722" y="-7.2" font-family="Times,serif" font-size="14.00">updated_at :datetime</text>
</g>
<!-- ActiveRecord::Base -->
<g id="node5" class="node"><title>ActiveRecord::Base</title>
<ellipse fill="none" stroke="black" cx="313" cy="-331" rx="88.2033" ry="18"/>
<text text-anchor="middle" x="313" y="-325.4" font-family="Times,serif" font-size="14.00">ActiveRecord::Base</text>
</g>
<!-- ActiveRecord::Base&#45;&gt;Person -->
<g id="edge1" class="edge"><title>ActiveRecord::Base&#45;&gt;Person</title>
<path fill="none" stroke="black" d="M294.246,-313.112C278.043,-297.996 254.539,-274.766 237,-252 226.884,-238.868 217.034,-224.273 207.977,-209.823"/>
</g>
<!-- ActiveRecord::Base&#45;&gt;Rail -->
<g id="edge2" class="edge"><title>ActiveRecord::Base&#45;&gt;Rail</title>
<path fill="none" stroke="black" d="M313,-312.692C313,-286.421 313,-235.087 313,-193.04"/>
</g>
<!-- ActiveRecord::Base&#45;&gt;User -->
<g id="edge3" class="edge"><title>ActiveRecord::Base&#45;&gt;User</title>
<path fill="none" stroke="black" d="M329.56,-313.123C344.874,-297.434 368.19,-273.341 388,-252 391.172,-248.583 394.384,-245.105 397.621,-241.587"/>
</g>
</g>
</svg>
